<svg width="1440" height="411" viewBox="0 0 1440 411" fill="none" xmlns="http://www.w3.org/2000/svg">
<path d="M633.5 261.5C515.1 259.634 382.333 310.725 341 336.229C185.667 355.979 -125 402.943 -125 432.802V621.748L1379.5 674L1839 473.857C1726.5 378.217 1630.99 468.144 1630.5 464.5C1591 169 1515 328.106 1192 350.5C869 372.894 781.5 263.833 633.5 261.5Z" fill="#F8F8F8"/>
<path d="M792.5 369L887 341.5L915 333.5" stroke="#EDEDED"/>
<path d="M804 369.162L898.5 341.662L919.5 335" stroke="#EDEDED"/>
<path d="M1409.87 290.662L1412.32 241.614L1389.16 240.454L1386.71 289.503L1409.87 290.662Z" fill="#4A2020"/>
<path d="M1458.85 266.835L1410.81 179.165C1408.84 175.572 1403.86 175.129 1401.09 178.301L1338.05 250.466C1334.89 254.082 1336.84 259.651 1341.5 260.301L1452.58 275.806C1457.5 276.493 1461.22 271.166 1458.85 266.835Z" fill="#263D2C"/>
<path d="M1450.19 213.391L1412.31 138.128C1410.32 134.18 1404.77 134.001 1402.13 137.8L1357.17 202.424C1354.57 206.154 1356.6 211.134 1360.93 211.69L1443.77 222.328C1448.6 222.948 1452.36 217.708 1450.19 213.391Z" fill="#2C4433"/>
<path d="M1441.06 165.657L1418.19 112.285C1416.42 108.139 1410.88 107.361 1408.03 110.857L1375.3 151.028C1372.5 154.459 1374.26 159.633 1378.56 160.655L1434.16 173.857C1438.95 174.996 1443 170.187 1441.06 165.657Z" fill="#374D3D"/>
<path d="M141 279V207H175V279H141Z" fill="#4A2020"/>
<path d="M70.1769 241.895L148.375 114.719C151.236 110.066 157.901 109.808 161.379 114.216L250.02 226.56C253.986 231.586 251.014 238.873 244.772 239.427L77.9326 254.259C71.3329 254.846 66.7277 247.504 70.1769 241.895Z" fill="#263D2C"/>
<path d="M86.8573 164.248L149.241 54.3496C152.15 49.2239 159.551 49.3552 162.818 54.5903L225.323 154.766C228.529 159.905 225.505 166.402 219.696 166.854L94.8077 176.577C88.3388 177.081 83.6768 169.851 86.8573 164.248Z" fill="#2C4433"/>
<path d="M103.796 95.0939L142.462 16.0156C145.103 10.6141 152.535 9.94751 156.095 14.7928L202.608 78.0961C206.102 82.8517 203.42 89.6245 197.618 90.6992L112.44 106.474C105.978 107.671 100.909 100.998 103.796 95.0939Z" fill="#374D3D"/>
<path d="M297 290V270L284 267.5L281.5 286.5L286 288L297 290Z" fill="#4A2020"/>
<path d="M266.723 265.121L285.306 235.675C286.788 233.327 290.152 233.165 291.852 235.36L315.755 266.225C317.829 268.903 315.844 272.785 312.459 272.672L269.972 271.254C266.884 271.151 265.074 267.734 266.723 265.121Z" fill="#263D2C"/>
<path d="M269.696 250.034L284.449 226.248C285.904 223.902 289.242 223.7 290.969 225.854L310.629 250.373C312.754 253.023 310.819 256.947 307.423 256.875L273.01 256.141C269.913 256.075 268.063 252.666 269.696 250.034Z" fill="#2C4433"/>
<path d="M273.482 230.312L285.076 211.68C286.639 209.168 290.295 209.163 291.863 211.672L304.686 232.179C306.426 234.961 304.26 238.539 300.989 238.288L276.573 236.414C273.579 236.184 271.896 232.861 273.482 230.312Z" fill="#374D3D"/>
<path d="M144.784 278.882C-132.657 282.919 -181.697 386.239 -235 410.065L-291 548.816L1370.05 563.952L1437 576C1512 508 1667.91 316.428 1418.05 287.837C1107.04 252.247 1095.24 373.906 807.406 368.86C519.571 363.815 491.586 273.837 144.784 278.882Z" fill="white"/>
<path d="M667 358C663 379 616.667 413.833 590 424.5" stroke="#F4F4F4" stroke-width="3"/>
<path d="M690 361C687.5 386.5 639.667 417.833 613 428.5" stroke="#F4F4F4" stroke-width="3"/>
</svg>
